<svg id="Layer_1" data-name="Layer 1" xmlns="http://www.w3.org/2000/svg" viewBox="0 0 4668.87 3526.87"><defs><style>.cls-1{fill:#f5eedd;}</style></defs><path class="cls-1" d="M2276.32,2614.29l811.39,1516.17,65.77-74.11L2574,2205.08s582.89-736.74,699.93-936.81c38.24-79.58,196.81-400.68,58.69-517.94-.53-.44-1.07-.83-1.6-1.27s-1.1-.8-1.67-1.18c-151.24-99.74-415.09,142.4-480.77,201.4-159.29,168.38-703.3,934.28-703.3,934.28L205.77,1845.72l-52.71,83.9,1682.73,354.3s-250.92,395.31-373,603.15-383.07,704.69-383.07,704.69l-605,47.8,8.46,38.36,542.64,145,274.14,409.91,39.18-2.63-106.53-523.76s403.89-389.66,569.21-565.09S2276.32,2614.29,2276.32,2614.29Z" transform="translate(-153.06 -724.07)"/><circle class="cls-1" cx="3540.63" cy="1763.43" r="433.51"/><circle class="cls-1" cx="4235.36" cy="3093.36" r="433.51"/><circle class="cls-1" cx="4235.36" cy="433.51" r="433.51"/></svg>