<svg id="Layer_1" data-name="Layer 1" xmlns="http://www.w3.org/2000/svg" viewBox="0 0 219.71 166.96"><defs><style>.cls-1{fill:#c1baac;}.cls-2{fill:#1d1d42;}.cls-3,.cls-7{fill:#fff;}.cls-4{fill:#0b7b7e;}.cls-5{fill:#294e69;}.cls-11,.cls-6{fill:#45bec4;}.cls-11,.cls-7{isolation:isolate;}.cls-7{opacity:0.46;}.cls-8{fill:#f59193;}.cls-9{fill:#f26e6f;}.cls-10{fill:#f26822;}.cls-11{opacity:0.24;}.cls-12{fill:#0b212b;}</style></defs><ellipse class="cls-1" cx="109.85" cy="163.22" rx="109.85" ry="3.74"/><g id="_11" data-name=" 11"><path class="cls-2" d="M63.85,47.71a7.51,7.51,0,0,0-2.35-3.36,6.59,6.59,0,0,0-2.38-1.12A8.29,8.29,0,0,0,61.57,42,8.64,8.64,0,0,0,64,39.17a13.86,13.86,0,0,0,1.55-7.56,19.07,19.07,0,0,0,1.62,7.17,7.81,7.81,0,0,0,2.34,3.27,7,7,0,0,0,2.36,1.18,6.78,6.78,0,0,0-2.29,1.08,7.78,7.78,0,0,0-2.51,3.5,19.07,19.07,0,0,0-1.38,8A26,26,0,0,0,63.85,47.71Z" transform="translate(0)"/><path class="cls-2" d="M52.85,69.26a5.32,5.32,0,0,0-1.63-2.34,4.38,4.38,0,0,0-1.65-.77,5.68,5.68,0,0,0,1.7-.86,5.87,5.87,0,0,0,1.67-2A9.54,9.54,0,0,0,54,58.05a13.48,13.48,0,0,0,1.12,5,5.48,5.48,0,0,0,1.63,2.26,4.89,4.89,0,0,0,1.64.83,4.92,4.92,0,0,0-1.59.74,5.45,5.45,0,0,0-1.74,2.44,13.21,13.21,0,0,0-1,5.55A18,18,0,0,0,52.85,69.26Z" transform="translate(0)"/><path class="cls-2" d="M159.21,56.12a18.61,18.61,0,1,1,18.64-18.61A18.61,18.61,0,0,1,159.21,56.12Zm0-33.94a15.33,15.33,0,1,0,15.32,15.34h0A15.34,15.34,0,0,0,159.21,22.18Z" transform="translate(0)"/><path class="cls-2" d="M160.24,37.08a1.15,1.15,0,1,1-1.15-1.15h0a1.14,1.14,0,0,1,1.14,1.14Z" transform="translate(0)"/><path class="cls-2" d="M159.1,37.28a.2.2,0,0,1-.21-.19h0v-17a.21.21,0,0,1,.16-.25.21.21,0,0,1,.25.16.14.14,0,0,1,0,.09v17A.2.2,0,0,1,159.1,37.28Z" transform="translate(0)"/><path class="cls-2" d="M159,37.32a.2.2,0,0,1-.2-.17l-3.53-16.54a.22.22,0,0,1,.16-.25.21.21,0,0,1,.24.16l3.53,16.6a.18.18,0,0,1-.13.23h0Z" transform="translate(0)"/><path class="cls-2" d="M158.93,37.37a.21.21,0,0,1-.19-.13l-6.89-15.5a.21.21,0,1,1,.38-.16l6.9,15.5a.2.2,0,0,1-.09.27h0Z" transform="translate(0)"/><path class="cls-2" d="M158.85,37.43a.2.2,0,0,1-.17-.09l-10-13.73a.19.19,0,0,1,.05-.28.2.2,0,0,1,.28,0l10,13.72a.21.21,0,0,1,0,.29A.19.19,0,0,1,158.85,37.43Z" transform="translate(0)"/><path class="cls-2" d="M158.85,37.51a.2.2,0,0,1-.14-.06L146.07,26.1a.2.2,0,0,1,0-.29.2.2,0,0,1,.28,0L159,37.15a.21.21,0,0,1,0,.29A.23.23,0,0,1,158.85,37.51Z" transform="translate(0)"/><path class="cls-2" d="M158.78,37.61h-.1L144,29.12a.2.2,0,1,1,.2-.35l14.66,8.44a.2.2,0,0,1,.09.27.19.19,0,0,1-.19.11Z" transform="translate(0)"/><path class="cls-2" d="M158.77,37.68c-.07,0-16.2-5.25-16.2-5.25a.19.19,0,0,1-.13-.25.2.2,0,0,1,.25-.14l16.16,5.24a.22.22,0,0,1,.11.28.24.24,0,0,1-.17.12Z" transform="translate(0)"/><path class="cls-2" d="M158.77,37.78,141.85,36a.19.19,0,0,1-.19-.21h0a.2.2,0,0,1,.22-.18h0l16.87,1.77a.18.18,0,0,1,.18.2v0A.22.22,0,0,1,158.77,37.78Z" transform="translate(0)"/><path class="cls-2" d="M141.92,39.61a.2.2,0,0,1-.2-.18.2.2,0,0,1,.17-.23h0l16.87-1.77a.22.22,0,0,1,.23.18.2.2,0,0,1-.18.22h0l-16.88,1.78Z" transform="translate(0)"/><path class="cls-2" d="M142.7,43.19a.2.2,0,0,1-.2-.14.22.22,0,0,1,.14-.26l16.13-5.24a.21.21,0,0,1,.23.18.21.21,0,0,1-.1.21l-16.14,5.24Z" transform="translate(0)"/><path class="cls-2" d="M144.2,46.51a.2.2,0,0,1-.18-.11.21.21,0,0,1,.08-.28l14.69-8.51a.21.21,0,0,1,.28.06h0A.22.22,0,0,1,159,38l-14.7,8.49A.21.21,0,0,1,144.2,46.51Z" transform="translate(0)"/><path class="cls-2" d="M146.36,49.43a.23.23,0,0,1-.16-.06.21.21,0,0,1,0-.29l12.65-11.36a.21.21,0,0,1,.27.31L146.49,49.38A.19.19,0,0,1,146.36,49.43Z" transform="translate(0)"/><path class="cls-2" d="M149.07,51.85H149a.21.21,0,0,1,0-.29l10-13.72a.22.22,0,0,1,.29-.05.21.21,0,0,1,0,.29h0l-10,13.73A.2.2,0,0,1,149.07,51.85Z" transform="translate(0)"/><path class="cls-2" d="M152.23,53.61h-.08a.19.19,0,0,1-.1-.26h0l6.9-15.5a.2.2,0,1,1,.37.17l-6.9,15.5A.21.21,0,0,1,152.23,53.61Z" transform="translate(0)"/><path class="cls-2" d="M155.7,54.75a.22.22,0,0,1-.2-.24h0L159,37.9a.19.19,0,0,1,.22-.15h0a.21.21,0,0,1,.16.24L155.9,54.61A.2.2,0,0,1,155.7,54.75Z" transform="translate(0)"/><path class="cls-2" d="M159.32,55.11a.2.2,0,0,1-.2-.2h0v-17a.2.2,0,0,1,.19-.21h0a.21.21,0,0,1,.21.21h0v17a.21.21,0,0,1-.21.21Z" transform="translate(0)"/><path class="cls-2" d="M162.94,54.7a.21.21,0,0,1-.21-.16l-3.52-16.6a.2.2,0,0,1,.13-.24h0a.22.22,0,0,1,.25.16l3.53,16.6a.21.21,0,0,1-.16.24Z" transform="translate(0)"/><path class="cls-2" d="M166.39,53.61a.21.21,0,0,1-.19-.12L159.3,38a.21.21,0,0,1,.1-.28h0a.2.2,0,0,1,.27.1h0l6.9,15.5a.2.2,0,0,1-.09.27h0Z" transform="translate(0)"/><path class="cls-2" d="M169.52,51.72a.17.17,0,0,1-.16-.09l-10-13.72a.21.21,0,0,1,0-.29.2.2,0,0,1,.28,0h0l10,13.72a.2.2,0,0,1,0,.28h0A.14.14,0,0,1,169.52,51.72Z" transform="translate(0)"/><path class="cls-2" d="M172.21,49.27h-.14L159.46,37.86a.21.21,0,0,1,0-.29.21.21,0,0,1,.23,0l12.61,11.35a.21.21,0,0,1,0,.29A.19.19,0,0,1,172.21,49.27Z" transform="translate(0)"/><path class="cls-2" d="M174.33,46.31h-.1l-14.7-8.48a.22.22,0,0,1-.07-.28.19.19,0,0,1,.27-.07h0L174.43,46a.2.2,0,0,1,.09.27h0A.21.21,0,0,1,174.33,46.31Z" transform="translate(0)"/><path class="cls-2" d="M175.79,43c-.07,0-16.2-5.25-16.2-5.25a.19.19,0,0,1-.13-.25h0a.19.19,0,0,1,.23-.14h0l16.13,5.27a.19.19,0,0,1,.13.25h0A.19.19,0,0,1,175.79,43Z" transform="translate(0)"/><path class="cls-2" d="M176.52,39.42l-16.89-1.81a.19.19,0,0,1-.19-.21h0a.19.19,0,0,1,.23-.18L176.54,39a.19.19,0,0,1,.19.21h0a.21.21,0,0,1-.2.22Z" transform="translate(0)"/><path class="cls-2" d="M159.62,37.55a.2.2,0,0,1-.2-.18.2.2,0,0,1,.18-.22h0l16.88-1.78a.19.19,0,0,1,.22.16v0a.22.22,0,0,1-.18.23l-16.87,1.77Z" transform="translate(0)"/><path class="cls-2" d="M159.58,37.47a.2.2,0,0,1-.18-.23.2.2,0,0,1,.12-.17l16.14-5.24a.21.21,0,0,1,.26.13.22.22,0,0,1-.14.26l-16.13,5.24Z" transform="translate(0)"/><path class="cls-2" d="M159.52,37.4a.21.21,0,0,1-.11-.38h0l14.7-8.49a.21.21,0,0,1,.2.36l-14.69,8.48A.2.2,0,0,1,159.52,37.4Z" transform="translate(0)"/><path class="cls-2" d="M159.45,37.34a.18.18,0,0,1-.15-.07.21.21,0,0,1,0-.29l12.62-11.37a.22.22,0,0,1,.3,0,.21.21,0,0,1,0,.29L159.59,37.29A.24.24,0,0,1,159.45,37.34Z" transform="translate(0)"/><path class="cls-2" d="M159.37,37.3a.24.24,0,0,1-.12,0,.22.22,0,0,1-.05-.29l10-13.72a.19.19,0,0,1,.28,0,.2.2,0,0,1,0,.28h0l-10,13.72A.21.21,0,0,1,159.37,37.3Z" transform="translate(0)"/><path class="cls-2" d="M159.28,37.27h-.08a.22.22,0,0,1-.11-.27L166,21.5a.23.23,0,0,1,.28-.11.19.19,0,0,1,.1.26h0l-6.9,15.5A.21.21,0,0,1,159.28,37.27Z" transform="translate(0)"/><path class="cls-2" d="M159.19,37.27A.2.2,0,0,1,159,37l3.53-16.6a.19.19,0,0,1,.22-.15h0a.21.21,0,0,1,.16.24l-3.53,16.6A.2.2,0,0,1,159.19,37.27Z" transform="translate(0)"/><path class="cls-2" d="M113.17,37.22a18.61,18.61,0,1,1,18.61-18.61h0A18.63,18.63,0,0,1,113.17,37.22Zm0-33.94a15.33,15.33,0,1,0,15.32,15.34h0A15.35,15.35,0,0,0,113.17,3.28Z" transform="translate(0)"/><path class="cls-2" d="M114.2,18.18A1.15,1.15,0,1,1,113.05,17h0a1.14,1.14,0,0,1,1.14,1.14Z" transform="translate(0)"/><path class="cls-2" d="M113.06,18.38a.2.2,0,0,1-.21-.19h0v-17a.2.2,0,0,1,.2-.2h0a.2.2,0,0,1,.2.2v17A.2.2,0,0,1,113.06,18.38Z" transform="translate(0)"/><path class="cls-2" d="M113,18.42a.2.2,0,0,1-.2-.17L109.24,1.66a.22.22,0,0,1,.16-.25.21.21,0,0,1,.24.16l3.53,16.6a.21.21,0,0,1-.16.24Z" transform="translate(0)"/><path class="cls-2" d="M112.85,18.47a.21.21,0,0,1-.19-.13L105.85,2.85a.21.21,0,1,1,.36-.22l0,.05,6.9,15.5a.2.2,0,0,1-.09.27h0Z" transform="translate(0)"/><path class="cls-2" d="M112.85,18.53a.21.21,0,0,1-.17-.08l-10-13.73a.2.2,0,0,1,0-.29.21.21,0,0,1,.28.05h0l10,13.73a.19.19,0,0,1,0,.27h0A.18.18,0,0,1,112.85,18.53Z" transform="translate(0)"/><path class="cls-2" d="M112.77,18.61a.29.29,0,0,1-.13,0L100,7.2a.2.2,0,0,1,.27-.3l12.61,11.35a.21.21,0,0,1,0,.29A.21.21,0,0,1,112.77,18.61Z" transform="translate(0)"/><path class="cls-2" d="M112.74,18.7a.17.17,0,0,1-.1,0l-14.7-8.49a.22.22,0,0,1-.07-.28.19.19,0,0,1,.27-.07h0l14.7,8.45a.2.2,0,0,1,.09.27h0A.21.21,0,0,1,112.74,18.7Z" transform="translate(0)"/><path class="cls-2" d="M112.72,18.79l-16.2-5.26a.21.21,0,0,1-.13-.26.22.22,0,0,1,.26-.13l16.14,5.24a.19.19,0,0,1,.13.25h0A.21.21,0,0,1,112.72,18.79Z" transform="translate(0)"/><path class="cls-2" d="M112.73,18.88,95.85,17.1a.2.2,0,0,1-.18-.22h0a.2.2,0,0,1,.22-.18h0l16.87,1.77a.2.2,0,0,1,.18.22h0A.21.21,0,0,1,112.73,18.88Z" transform="translate(0)"/><path class="cls-2" d="M95.85,20.74a.21.21,0,0,1-.21-.18.21.21,0,0,1,.19-.23h0l16.9-1.72a.23.23,0,0,1,.23.18.21.21,0,0,1-.19.23h0L95.9,20.79Z" transform="translate(0)"/><path class="cls-2" d="M96.66,24.29a.2.2,0,0,1-.2-.14.22.22,0,0,1,.13-.26l16.14-5.28a.21.21,0,1,1,.13.39L96.72,24.24Z" transform="translate(0)"/><path class="cls-2" d="M98.16,27.61A.21.21,0,0,1,98,27.4a.22.22,0,0,1,.1-.18l14.7-8.48a.21.21,0,0,1,.28.08.19.19,0,0,1-.07.27h0L98.26,27.61A.17.17,0,0,1,98.16,27.61Z" transform="translate(0)"/><path class="cls-2" d="M100.31,30.54a.21.21,0,0,1-.15-.07.21.21,0,0,1,0-.29l12.61-11.36a.21.21,0,0,1,.27.31L100.45,30.48A.2.2,0,0,1,100.31,30.54Z" transform="translate(0)"/><path class="cls-2" d="M103,33h-.12a.19.19,0,0,1,0-.27h0l10-13.73a.22.22,0,0,1,.29-.05.21.21,0,0,1,0,.29l-10,13.73A.21.21,0,0,1,103,33Z" transform="translate(0)"/><path class="cls-2" d="M106.19,34.75h-.08a.19.19,0,0,1-.1-.26h0l6.9-15.5a.2.2,0,1,1,.37.17l-6.9,15.46A.2.2,0,0,1,106.19,34.75Z" transform="translate(0)"/><path class="cls-2" d="M109.66,35.85a.19.19,0,0,1-.2-.25L113,19a.2.2,0,0,1,.4.08l-3.54,16.6A.2.2,0,0,1,109.66,35.85Z" transform="translate(0)"/><path class="cls-2" d="M113.28,36.21a.21.21,0,0,1-.21-.21h0V19a.21.21,0,0,1,.21-.21h0a.2.2,0,0,1,.2.2h0V36a.2.2,0,0,1-.19.21Z" transform="translate(0)"/><path class="cls-2" d="M116.85,35.81a.2.2,0,0,1-.2-.17l-3.53-16.59a.22.22,0,0,1,.15-.26.22.22,0,0,1,.26.16h0l3.56,16.65a.2.2,0,0,1-.13.24h0Z" transform="translate(0)"/><path class="cls-2" d="M120.35,34.66a.21.21,0,0,1-.19-.12L113.26,19a.2.2,0,1,1,.37-.17h0l6.9,15.5a.2.2,0,0,1-.09.27h0Z" transform="translate(0)"/><path class="cls-2" d="M123.48,32.82a.21.21,0,0,1-.16-.08L113.32,19a.23.23,0,0,1,0-.29.21.21,0,0,1,.29,0l10,13.73a.2.2,0,0,1,0,.28h0A.14.14,0,0,1,123.48,32.82Z" transform="translate(0)"/><path class="cls-2" d="M126.17,30.37a.24.24,0,0,1-.14-.05L113.42,19a.2.2,0,0,1,0-.28h0a.23.23,0,0,1,.29,0L126.31,30a.21.21,0,0,1,0,.29A.19.19,0,0,1,126.17,30.37Z" transform="translate(0)"/><path class="cls-2" d="M128.29,27.41h-.1l-14.7-8.49a.2.2,0,0,1,.21-.35l14.69,8.48a.21.21,0,0,1,.08.28A.18.18,0,0,1,128.29,27.41Z" transform="translate(0)"/><path class="cls-2" d="M129.75,24.08c-.07,0-16.21-5.25-16.21-5.25a.22.22,0,0,1-.13-.26.21.21,0,0,1,.26-.13l16.18,5.24A.22.22,0,0,1,130,24a.24.24,0,0,1-.17.12Z" transform="translate(0)"/><path class="cls-2" d="M130.48,20.52l-16.9-1.77a.22.22,0,0,1-.18-.23.18.18,0,0,1,.2-.18h0l16.87,1.77a.2.2,0,0,1,.18.22h0A.2.2,0,0,1,130.48,20.52Z" transform="translate(0)"/><path class="cls-2" d="M113.58,18.66a.21.21,0,0,1-.2-.19.2.2,0,0,1,.18-.22h0l16.88-1.78a.21.21,0,0,1,.22.19.2.2,0,0,1-.18.22h0L113.6,18.66Z" transform="translate(0)"/><path class="cls-2" d="M113.54,18.61a.2.2,0,0,1-.2-.14.22.22,0,0,1,.14-.26L129.61,13a.21.21,0,0,1,.26.12h0a.21.21,0,0,1-.12.26h0L113.6,18.61Z" transform="translate(0)"/><path class="cls-2" d="M113.48,18.5a.22.22,0,0,1-.18-.1.21.21,0,0,1,.08-.28l14.69-8.51a.21.21,0,0,1,.28.06h0a.21.21,0,0,1-.06.28h0l-14.7,8.48A.21.21,0,0,1,113.48,18.5Z" transform="translate(0)"/><path class="cls-2" d="M113.41,18.44a.21.21,0,0,1-.16-.34h0L125.85,6.73a.21.21,0,0,1,.28.31L113.55,18.39A.24.24,0,0,1,113.41,18.44Z" transform="translate(0)"/><path class="cls-2" d="M113.33,18.4a.24.24,0,0,1-.12,0,.22.22,0,0,1,0-.29l10-13.72a.22.22,0,0,1,.3,0,.21.21,0,0,1,0,.25l-10,13.73A.21.21,0,0,1,113.33,18.4Z" transform="translate(0)"/><path class="cls-2" d="M113.24,18.38h-.08a.22.22,0,0,1-.11-.27L120,2.61a.22.22,0,0,1,.27-.11.2.2,0,0,1,.11.26h0l-6.9,15.5A.21.21,0,0,1,113.24,18.38Z" transform="translate(0)"/><path class="cls-2" d="M113.15,18.37a.2.2,0,0,1-.2-.25l3.52-16.59a.22.22,0,0,1,.25-.16.21.21,0,0,1,.13.24l-3.5,16.6A.2.2,0,0,1,113.15,18.37Z" transform="translate(0)"/><path class="cls-3" d="M113.36,42.06a.86.86,0,0,1-.84-.84V19a.84.84,0,1,1,1.68,0v22.2A.86.86,0,0,1,113.36,42.06Z" transform="translate(0)"/><path class="cls-3" d="M159.46,39.35l-31.82,6.76a1,1,0,0,1-.89-1.1,1,1,0,0,1,.49-.76l31.82-6.76a1,1,0,1,1,1,1.73,1,1,0,0,1-.6.13Z" transform="translate(0)"/><path class="cls-3" d="M148.59,41.11l-34.84-17a1,1,0,0,1,.9-1.84l34.84,17a1,1,0,1,1-.9,1.84Z" transform="translate(0)"/><path class="cls-4" d="M219.59,147H3.17A47.42,47.42,0,0,1,.74,136.74a39.58,39.58,0,0,1,.27-12A35.08,35.08,0,0,1,3.54,117a34.37,34.37,0,0,1,8.64-11.23C23,96.33,40,92.11,57.85,96.42Q71.43,78.1,84.93,59.77c.89-.21,1.78-.4,2.71-.58,26.34-5.48,57.17-7.08,92.5-.93L204.7,99.72a70.69,70.69,0,0,1,9.81,16.74,69.52,69.52,0,0,1,4.93,20.28A67.32,67.32,0,0,1,219.59,147Z" transform="translate(0)"/><path class="cls-2" d="M219.59,147H3.17A47.42,47.42,0,0,1,.74,136.74H219.41A67.32,67.32,0,0,1,219.59,147Z" transform="translate(0)"/><circle class="cls-2" cx="42.95" cy="141.5" r="23.72"/><path class="cls-5" d="M66,147.39h-.1a.39.39,0,0,1-.3-.48h0a23.32,23.32,0,0,0,.15-10.09.42.42,0,0,1,.32-.48.43.43,0,0,1,.49.32,24.81,24.81,0,0,1,.49,4.86,24.38,24.38,0,0,1-.65,5.58A.41.41,0,0,1,66,147.39Z" transform="translate(0)"/><path class="cls-5" d="M19.85,147.39a.42.42,0,0,1-.4-.31,24.38,24.38,0,0,1-.65-5.58,24.71,24.71,0,0,1,.49-4.85.41.41,0,0,1,.81.17,23,23,0,0,0-.48,4.68,23.29,23.29,0,0,0,.63,5.39.4.4,0,0,1-.29.49h-.11Z" transform="translate(0)"/><path class="cls-3" d="M51.06,141.5a9.24,9.24,0,1,1-9.25-9.23h0A9.23,9.23,0,0,1,51.06,141.5Z" transform="translate(0)"/><circle class="cls-2" cx="184.5" cy="141.5" r="23.72"/><circle class="cls-3" cx="183.38" cy="141.5" r="9.23"/><path class="cls-5" d="M207.58,147.39h-.09a.39.39,0,0,1-.3-.48h0a23.9,23.9,0,0,0,.62-5.39,24.24,24.24,0,0,0-.43-4.5.4.4,0,0,1,.27-.51.4.4,0,0,1,.51.27.24.24,0,0,1,0,.08,24.38,24.38,0,0,1-.2,10.24A.4.4,0,0,1,207.58,147.39Z" transform="translate(0)"/><path class="cls-5" d="M161.42,147.39a.4.4,0,0,1-.4-.31,24.38,24.38,0,0,1-.65-5.58,24,24,0,0,1,.43-4.56.41.41,0,0,1,.45-.37.41.41,0,0,1,.37.45s0,0,0,.08a24,24,0,0,0-.41,4.4,23.29,23.29,0,0,0,.63,5.39.41.41,0,0,1-.31.49h-.09Z" transform="translate(0)"/><path class="cls-5" d="M183.38,151.14A9.64,9.64,0,1,1,193,141.5h0A9.66,9.66,0,0,1,183.38,151.14Zm0-18.46a8.82,8.82,0,1,0,8.82,8.82A8.82,8.82,0,0,0,183.38,132.68Z" transform="translate(0)"/><path class="cls-6" d="M196.79,97.75l-27.33-.47-22.71-.36h-2.4c-2.37,0-4.74-.06-7.11-.12h-2.52a83.93,83.93,0,0,0,4.43-15.32,82.77,82.77,0,0,0,1.08-22c4.8,0,9.91.16,15.23.5h.4c2.22.15,4.4.34,6.53.55.77.06,1.5.12,2.24.25,4.34.43,8.5,1,12.4,1.63,1.73,3.07,3.42,6.12,5.14,9.2C187,80.3,191.93,89,196.79,97.75Z" transform="translate(0)"/><path class="cls-7" d="M162.39,60.48l-18,36.4c-2.37,0-4.74-.06-7.11-.12L155.5,59.9h.4C158.09,60.07,160.26,60.27,162.39,60.48Z" transform="translate(0)"/><path class="cls-7" d="M182.17,71.61,169.46,97.33,146.75,97l17.88-36.19c4.34.43,8.5,1,12.4,1.63C178.76,65.43,180.45,68.48,182.17,71.61Z" transform="translate(0)"/><path class="cls-2" d="M134.11,83a67.3,67.3,0,0,1-6.68,16.49v37.27H76.68a56.42,56.42,0,0,0,0-6.1A57,57,0,0,0,76,124.4,66.44,66.44,0,0,0,64.16,97.16Q75.23,80.45,86.28,63.71c5-1.11,10.25-2.06,15.76-2.89a229,229,0,0,1,33.7-2.49A67.34,67.34,0,0,1,134.11,83Z" transform="translate(0)"/><path class="cls-3" d="M131.85,96.24H84.55L69.3,93.77,86.64,66.61c7.57-1.44,15.71-2.71,24.36-3.72,8.29-1,16.18-1.57,23.59-1.92Z" transform="translate(0)"/><path class="cls-3" d="M11,122.3a13.4,13.4,0,0,1-10,2.4A35.08,35.08,0,0,1,3.51,117a34.37,34.37,0,0,1,8.64-11.23,6.93,6.93,0,0,1,3.51,2.61C18.46,112.36,16.34,118.61,11,122.3Z" transform="translate(0)"/><path class="cls-5" d="M2.49,123.9a11.14,11.14,0,0,1-2.16-.21.4.4,0,0,1-.26-.18A.42.42,0,0,1,0,123.2,33.36,33.36,0,0,1,11.31,104a.39.39,0,0,1,.4-.08,7.4,7.4,0,0,1,3.72,2.77c2.87,4.16.72,10.67-4.82,14.51A14.7,14.7,0,0,1,2.49,123.9ZM.9,123a13.21,13.21,0,0,0,9.25-2.41c5.15-3.59,7.22-9.59,4.6-13.37a6.48,6.48,0,0,0-3.08-2.38A32.36,32.36,0,0,0,.9,123Z" transform="translate(0)"/><rect class="cls-3" x="95.69" y="38.69" width="72.4" height="17.81" rx="1.68"/><path class="cls-5" d="M163.58,56.91H96.69a3.17,3.17,0,0,1-3.17-3.17V41.44a3.17,3.17,0,0,1,3.17-3.16h66.89a3.18,3.18,0,0,1,3.16,3.16v12.3A3.17,3.17,0,0,1,163.58,56.91ZM96.69,39.1a2.34,2.34,0,0,0-2.34,2.34v12.3a2.36,2.36,0,0,0,2.34,2.35h66.89a2.36,2.36,0,0,0,2.34-2.35V41.44a2.34,2.34,0,0,0-2.34-2.34Z" transform="translate(0)"/><path class="cls-5" d="M167.34,48H96.44a.41.41,0,0,1-.41-.41h0a.43.43,0,0,1,.41-.41h70.9a.41.41,0,0,1,.41.41h0a.41.41,0,0,1-.41.41Z" transform="translate(0)"/><rect class="cls-3" x="107.7" y="43.68" width="3.55" height="7.77"/><rect class="cls-3" x="152.53" y="43.68" width="3.55" height="7.77"/><rect class="cls-6" x="97.13" y="29.04" width="57.18" height="10.94" rx="1.17"/><path class="cls-5" d="M153.71,34.92h-56a.42.42,0,0,1-.35-.48.42.42,0,0,1,.35-.35h56a.42.42,0,1,1,.13.83Z" transform="translate(0)"/><rect class="cls-3" x="106.61" y="32.1" width="2.8" height="4.77"/><rect class="cls-3" x="142.02" y="32.1" width="2.8" height="4.77"/><path class="cls-5" d="M196.79,107.73h-62.2a.42.42,0,0,1-.35-.48.42.42,0,0,1,.35-.35h62.2a.42.42,0,0,1,.35.48A.42.42,0,0,1,196.79,107.73Z" transform="translate(0)"/><path class="cls-8" d="M117,74.9c-.18.45-.35.88-.54,1.32l-.31.76c-.2.48-.4.94-.58,1.42l-.78,1.89c-.17.4-.33.81-.5,1.21v.12h.09l1.78.49,1.07.29,2.77.76c0-.5.06-1,.07-1.51s.07-1.21.11-1.82a.61.61,0,0,1,0-.19l.09-1.66c0-.75.07-1.51.12-2.27C119.21,75.46,118.12,75.17,117,74.9Z" transform="translate(0)"/><path class="cls-9" d="M117,74.9c-.18.45-.35.88-.54,1.32l-.31.76c-.2.48-.4.94-.58,1.42a4.13,4.13,0,0,0,2.85-.31,3,3,0,0,0,1.88-2.38C119.21,75.46,118.12,75.17,117,74.9Z" transform="translate(0)"/><path class="cls-8" d="M107,119.84a56.34,56.34,0,0,0-9,.09l-3,.32c-2.28.24-4.54.46-6.81.71-.62,0-1.23.11-1.84.17l-.72.08c-1.12.11-2.23.21-3.36.34A7.7,7.7,0,0,0,76,124.4c-.58-2-2.42-10-3-11,3.94-1.92,6-2.49,7.09-2.61l3-.32,1.44-.17.6-.06.91-.11a4.41,4.41,0,0,0,.73-.09,4.55,4.55,0,0,0,.73-.09,8.65,8.65,0,0,0,.89-.1c.2,0,.41,0,.61-.07l1-.09.68-.08.89-.09.64-.08c.29,0,.6-.07.92-.09s.43-.06.65-.08l.41,0,.44-.06.71-.07.79-.08.87-.1.66-.06.91-.11.58-.06,1-.11h.42l1.35-.15H102l3.51-.39a6.54,6.54,0,0,1,5,6.14A6.44,6.44,0,0,1,107,119.84Z" transform="translate(0)"/><path class="cls-8" d="M109.54,114.94l-11.27-8.33,16.84-27,6.28,1.62a61,61,0,0,1-7.16,26.38A57.32,57.32,0,0,1,109.54,114.94Z" transform="translate(0)"/><path class="cls-10" d="M82.2,125.86l2.73-1,23.34-4.21a20.54,20.54,0,0,0,3.15-4.42,21.23,21.23,0,0,0,2.43-10L101.62,102l-4.26,5.89a66,66,0,0,0-17.92,1.93c-1.53.38-3,.8-4.39,1.26Q78.63,118.44,82.2,125.86Z" transform="translate(0)"/><path class="cls-3" d="M95.17,107.24a38.89,38.89,0,0,0,19,.37,26.49,26.49,0,0,0,6-29.63l-5.32,2.08Z" transform="translate(0)"/><path class="cls-8" d="M103.12,100.52l5,3.69c.52-.54,1.06-1.11,1.58-1.68.07-.07.12-.14.19-.2.42-.42.84-.88,1.23-1.32l.13-.15.59-.64.12-.15a.37.37,0,0,0,.12-.13c.23-.27.44-.48.62-.68s.1-.13.17-.2c.22-.24.4-.46.59-.69s.37-.42.56-.62l.69-.81c1.81-2.16,2.42-3,2.42-3A41.84,41.84,0,0,0,120,89.31a5,5,0,0,1-2.24-.16,5.4,5.4,0,0,1-3.09-3,34.44,34.44,0,0,0-3.94,4.07A17.45,17.45,0,0,0,109.45,92c-.13.2-.4.62-.79,1.18-.23.37-.5.75-.81,1.21l-.22.3c-.13.19-.28.37-.42.57a.13.13,0,0,0-.06.07c-.59.81-1.17,1.53-1.76,2.26-.13.17-.21.3-.32.42s-.28.37-.42.55l-1.28,1.62Z" transform="translate(0)"/><path class="cls-9" d="M105.32,97.66l4.34,4.87c.07-.07.12-.14.19-.2.42-.42.84-.88,1.23-1.32l.13-.15.59-.64.12-.15a.37.37,0,0,0,.12-.13V98.32Z" transform="translate(0)"/><path class="cls-3" d="M104.92,97.33l8.42,4.2,6.21-9.46a3.93,3.93,0,0,0,1.09-2.91C120.42,87,117.71,85,113.92,85Z" transform="translate(0)"/><rect class="cls-6" x="68.91" y="98.73" width="18.67" height="7.69" transform="translate(-40.81 52.87) rotate(-30)"/><path class="cls-6" d="M91,110.27A2.47,2.47,0,0,1,87.75,109h0L78.67,87.53a2.46,2.46,0,1,1,4.54-1.92L92.3,107A2.48,2.48,0,0,1,91,110.27Z" transform="translate(0)"/><circle class="cls-2" cx="124.32" cy="75.64" r="4.01"/><path class="cls-8" d="M122,72.61c-.34,3.07-2.55,5.34-4.91,5.06-2-.22-3.46-2.18-3.66-4.61a8.3,8.3,0,0,1,0-1.41l.09-.54a6.42,6.42,0,0,1,1.54-3.17,3.89,3.89,0,0,1,3.31-1.39h.25c2,.38,3.44,2.58,3.42,5.19A6.33,6.33,0,0,1,122,72.61Z" transform="translate(0)"/><path class="cls-8" d="M114.42,75l-.5-.52-1.22-1.65a.46.46,0,0,1,.08-.3c.15-.15.43-.1.54-.08a4.54,4.54,0,0,0,1.56-.06Z" transform="translate(0)"/><path class="cls-2" d="M122.05,73.67a31.67,31.67,0,0,1-3.8-2.72,29.36,29.36,0,0,1-3.15-3.06,2.08,2.08,0,0,1-.16-1.82c.79-1.55,5.17-2,7.3.33A5.7,5.7,0,0,1,122.05,73.67Z" transform="translate(0)"/><path class="cls-8" d="M120.85,71.51a1.1,1.1,0,1,1-1.22-1.08,1.15,1.15,0,0,1,1.22,1.08Z" transform="translate(0)"/><path class="cls-9" d="M116.72,73.54a1.11,1.11,0,1,0,1.07-1.15h0A1.11,1.11,0,0,0,116.72,73.54Z" transform="translate(0)"/><path class="cls-2" d="M119,67.27c.79,1.1,1.36,3,.64,3.7s-2-.84-5.43-1.11c-.81-.06-1.71,0-2-.62-.14-.24,0-.74.13-1.72.24-1.32.39-1.51.56-1.58.37-.15.64.29,1,.13s.36-.66.79-.85a1.15,1.15,0,0,1,.87.08C117.47,66,118.41,66.4,119,67.27Z" transform="translate(0)"/><path class="cls-3" d="M115.14,75.79c0,.1.28.25.53.21.63-.08.91-1.28.83-1.33s-.23.55-.85.86C115.38,75.67,115.14,75.69,115.14,75.79Z" transform="translate(0)"/><path class="cls-2" d="M115,71.86a.29.29,0,0,1-.13,0l-.76-.61a.23.23,0,0,1,0-.29.21.21,0,0,1,.29,0l.76.61a.21.21,0,0,1,0,.29A.22.22,0,0,1,115,71.86Z" transform="translate(0)"/><path class="cls-2" d="M115.7,71.55a.21.21,0,0,1-.15-.07l-.67-.68a.21.21,0,0,1,0-.29.24.24,0,0,1,.3,0l.66.69a.21.21,0,0,1,0,.29A.2.2,0,0,1,115.7,71.55Z" transform="translate(0)"/><path class="cls-2" d="M115.34,73.37a.21.21,0,0,1-.2-.19v-.53a.22.22,0,0,1,.25-.16.22.22,0,0,1,.16.16v.53a.21.21,0,0,1-.19.22Z" transform="translate(0)"/><path class="cls-2" d="M116.18,73.16A.19.19,0,0,1,116,73l-.15-.42a.21.21,0,0,1,.38-.16h0l.19.46a.2.2,0,0,1-.1.27h0Z" transform="translate(0)"/><path class="cls-3" d="M116.67,71.87c0,.36-.51.6-.93.71h-.25a2.08,2.08,0,0,1-.61,0,.62.62,0,0,1-.6-.33,1.38,1.38,0,0,1,.77-1.13h.1a1.32,1.32,0,0,1,.33-.08,1.47,1.47,0,0,1,.74.2A.8.8,0,0,1,116.67,71.87Z" transform="translate(0)"/><path class="cls-2" d="M115.73,71.78a1.22,1.22,0,0,1,0,.8h-.25a2.08,2.08,0,0,1-.61,0,.62.62,0,0,1-.6-.33,1.38,1.38,0,0,1,.77-1.13h.1A1,1,0,0,1,115.73,71.78Z" transform="translate(0)"/><path class="cls-2" d="M96.85,90.61a1.31,1.31,0,0,1-1.52-1L93.7,81.32a1.3,1.3,0,1,1,2.53-.58.19.19,0,0,1,0,.08l1.63,8.29A1.31,1.31,0,0,1,96.85,90.61Z" transform="translate(0)"/><path class="cls-8" d="M91.28,89.24a26,26,0,0,0,12.23,16.43,3,3,0,0,0,3.53,0,3.25,3.25,0,0,0,1.37-4L96.16,86.19Z" transform="translate(0)"/><path class="cls-8" d="M97.05,89.54l-5.77-.3a15.12,15.12,0,0,1,.22-2.42,16.88,16.88,0,0,1,2.15-5.91,1.37,1.37,0,0,1,.68.19c1.08.65.54,2.68,1.29,3s1.51-1,2-.73.33,1,.25,1.62Z" transform="translate(0)"/><path class="cls-6" d="M127.43,124.4v12.34H76.68a56.42,56.42,0,0,0,0-6.1A57,57,0,0,0,76,124.4Z" transform="translate(0)"/><path class="cls-6" d="M127.43,128.9H83.75A13.85,13.85,0,0,1,97.6,115.06h29.83Z" transform="translate(0)"/><path class="cls-6" d="M127.43,118l-19.25.51a158.63,158.63,0,0,0,7.88-16.16c3.23-7.67,5.77-13.85,6.74-22.4a62.13,62.13,0,0,0,.35-8.73,7.45,7.45,0,0,1,8.11-1.85,7.8,7.8,0,0,1,4.4,5.43c.93,10.65-1.38,17.27-3.83,21.43a18.69,18.69,0,0,0-3.26,5.93c-.67,2.37-.43,3.86-.5,7.5A75.14,75.14,0,0,1,127.43,118Z" transform="translate(0)"/><path class="cls-8" d="M123.9,117.47q-5.22,4.26-10.43,8.55c-1.49,1.24-3,2.45-4.48,3.68l-.24-3.55q-1.31-19.37-2.6-38.71c.11-1.35.26-2.66.41-4,1.15-.32,2.32-.65,3.46-1,.85-.22,1.7-.48,2.54-.72a1.77,1.77,0,0,0,.15.31,172.65,172.65,0,0,1,9.23,26.73C122.69,111.78,123.33,114.66,123.9,117.47Z" transform="translate(0)"/><path class="cls-8" d="M105.51,76.81c.1.53.2,1,.28,1.58.06.3.11.59.16.9.1.58.19,1.14.31,1.71.13.78.26,1.51.39,2.26.08.48.18,1,.26,1.45v.14H107l2-.6,1.2-.37,3.08-1c-.27-.48-.55-1-.84-1.47s-.66-1.2-1-1.8a.42.42,0,0,1-.11-.18l-.91-1.64c-.42-.74-.85-1.48-1.26-2.23C107.94,76,106.72,76.4,105.51,76.81Z" transform="translate(0)"/><path class="cls-9" d="M105.51,76.81c.1.53.2,1,.28,1.58.06.3.11.59.16.9.1.58.19,1.14.31,1.71a4.72,4.72,0,0,0,2.52-2,3.39,3.39,0,0,0,.36-3.39Z" transform="translate(0)"/><path class="cls-8" d="M110.58,74.45c-.45,3.13-2.8,5.39-5.2,5-2-.3-3.48-2.35-3.6-4.84a7,7,0,0,1,.06-1.45l.1-.55a6.74,6.74,0,0,1,1.68-3.2,4,4,0,0,1,3.44-1.31h.26c2.06.46,3.44,2.76,3.34,5.43C110.65,73.84,110.62,74.14,110.58,74.45Z" transform="translate(0)"/><path class="cls-8" d="M102.75,77.21l-.5-.55-1.19-1.73a.41.41,0,0,1,.09-.3c.15-.16.44-.09.55-.07a4.77,4.77,0,0,0,1.6,0C103.12,75.44,102.93,76.33,102.75,77.21Z" transform="translate(0)"/><path class="cls-9" d="M106.85,75.71a1.13,1.13,0,1,1-2.21-.5h0a1.13,1.13,0,1,1,2.21.5Z" transform="translate(0)"/><path class="cls-3" d="M105,73.91c0,.31-.45.5-.85.59l-.44.06a2.14,2.14,0,0,1-.62-.06.74.74,0,0,1-.21,0,.15.15,0,0,1-.13,0,.61.61,0,0,1-.41-.36c-.09-.34.33-.86.88-1.07h.58a.63.63,0,0,1,.35.07C104.6,73.13,105,73.55,105,73.91Z" transform="translate(0)"/><path class="cls-3" d="M104.09,76.61c.13.12-.17,1.11-.7,1.17-.3,0-.62-.22-.61-.4s.17-.15.61-.39A6.94,6.94,0,0,1,104.09,76.61Z" transform="translate(0)"/><path class="cls-2" d="M109.32,68.51a5,5,0,0,1,1.49,2.83,7,7,0,0,1,0,2.66c-.23,1.57-.89,3.15-1.2,3.09s.18-3.73-.75-4c-.3-.1-.67.2-.87.39a4.24,4.24,0,0,1-3.23-1.18c-.23-.26-.49-.82-1.1-1-.32-.1-.47,0-1-.15a4.52,4.52,0,0,1-1.07-.37,2.67,2.67,0,0,1-1.35-1.24,2.05,2.05,0,0,1-.08-1.54c.27-.62.85-.87,1.73-1.25a3.34,3.34,0,0,1,1.78-.39,3.81,3.81,0,0,1,1.21.43,9.79,9.79,0,0,1,1.14.64c1,.55,1.47.12,2.71.8A4.53,4.53,0,0,1,109.32,68.51Z" transform="translate(0)"/><path class="cls-2" d="M103.85,73.61a1,1,0,0,1-.8.92.74.74,0,0,1-.21,0,.15.15,0,0,1-.13,0,.61.61,0,0,1-.41-.36c-.09-.34.33-.86.88-1.07h.4A.91.91,0,0,1,103.85,73.61Z" transform="translate(0)"/><path class="cls-8" d="M107.85,74.1A1.15,1.15,0,0,0,109,75.22h0a1.22,1.22,0,0,0,1-1.42,1.21,1.21,0,0,0-1.17-1,1.15,1.15,0,0,0-1,1.28Z" transform="translate(0)"/><path class="cls-8" d="M109.27,109.36c-2.3-.38-4.55-.76-6.86-1.13,0-.84.06-1.72.12-2.59v-.31a13.14,13.14,0,0,1,.1-2v-.23a5.77,5.77,0,0,1,.06-1v-.21a.34.34,0,0,1,0-.2,5,5,0,0,1,.06-1v-.3a3.27,3.27,0,0,1,.1-1,3.76,3.76,0,0,0,.07-.94c0-.31.06-.83.11-1.19.32-3.16.54-4.32.54-4.32a45.63,45.63,0,0,1,1.46-6,5.52,5.52,0,0,0,1.89,1.67,6,6,0,0,0,4.8.2,39.83,39.83,0,0,1-.21,6.37,23.64,23.64,0,0,1-.41,2.46c-.06.27-.19.81-.33,1.56-.12.48-.22,1-.35,1.6a3.66,3.66,0,0,1-.07.42c0,.12-.08.52-.14.79a.09.09,0,0,1,0,.1c-.19,1.11-.33,2.14-.45,3.18a3.89,3.89,0,0,1-.09.59c0,.17-.08.52-.12.78-.11.76-.2,1.51-.3,2.3C109.33,109.07,109.3,109.2,109.27,109.36Z" transform="translate(0)"/><path class="cls-9" d="M109.85,105.34l-7.33.3v-.31a13.14,13.14,0,0,1,.1-2v-.23a5.77,5.77,0,0,1,.06-1v-.21a.34.34,0,0,1,0-.2l1.31-1.27Z" transform="translate(0)"/><path class="cls-2" d="M110.44,105.4l-10-3.51,3.27-15a5.77,5.77,0,0,1,4.43-2.49,5.58,5.58,0,0,1,5.23,4Z" transform="translate(0)"/><path class="cls-2" d="M125.85,123.84c-3.47-.54-5.54-.07-6.8.49a19.53,19.53,0,0,1-3.57,1.3,21.06,21.06,0,0,1-6.76.52c-3.88-.55-6.77-5.63-7.12-6.26a12.38,12.38,0,0,0,4-4.87c1.5-3.47-.35-5.22-.29-12,0-5.53.35-10.71.83-15.54.11-1.35.26-2.66.41-4a1.38,1.38,0,0,1,0-.45l3.41-.54,2.69-.41h.11c.77,1.44,1.56,2.92,2.31,4.42.43.87,4.22,8.46,6.39,14.47A81.07,81.07,0,0,1,125.85,123.84Z" transform="translate(0)"/><path class="cls-4" d="M137.24,137l-67.39-.28q-3.41-19.92-6.8-39.83l71.72-.18Z" transform="translate(0)"/><path class="cls-11" d="M131.62,90v7.25H64.13l2.93-5a18.31,18.31,0,0,1,15.74-9h42A6.83,6.83,0,0,1,131.62,90Z" transform="translate(0)"/><path class="cls-7" d="M107.42,83.17l-10.11,14H86.9L97,83.17Z" transform="translate(0)"/><path class="cls-7" d="M124.31,83.17,114.18,97.23H99.72l10.11-14Z" transform="translate(0)"/><rect class="cls-12" x="67.94" y="80.95" width="17.54" height="11.96" rx="2.97"/><path class="cls-5" d="M67.42,134.74a.41.41,0,0,1-.41-.39c-.69-12.07-3.64-19.46-8.77-22a15.59,15.59,0,0,0-3.89-1.17c-1.9-.39-3.69-.76-4.8-2.39-1.94-2.86-.68-7.66,3.83-14.7a.41.41,0,0,1,.69.45h0c-4.25,6.63-5.55,11.27-3.84,13.79.92,1.36,2.48,1.68,4.28,2a16.9,16.9,0,0,1,4.1,1.25c5.41,2.65,8.51,10.28,9.22,22.66a.42.42,0,0,1-.39.44Z" transform="translate(0)"/></g></svg>